mtllib trenchbroom.mtl
# vertices
v -64 0 -64
v -64 0 64
v -64 16 64
v -64 16 -64
v 64 16 64
v 64 0 64
v 64 0 -64
v 64 16 -64
v -48 16 32
v -48 16 48
v -48 80 48
v -48 80 32
v -32 80 48
v -32 16 48
v -32 16 32
v -32 80 32
v 32 16 32
v 32 16 48
v 32 80 48
v 32 80 32
v 48 80 48
v 48 16 48
v 48 16 32
v 48 80 32
v 32 16 -48
v 32 16 -32
v 32 80 -32
v 32 80 -48
v 48 80 -32
v 48 16 -32
v 48 16 -48
v 48 80 -48
v -48 16 -48
v -48 16 -32
v -48 80 -32
v -48 80 -48
v -32 80 -32
v -32 16 -32
v -32 16 -48
v -32 80 -48

# texture coordinates
vt -64 -0
vt 64 -0
vt 64 16
vt -64 16
vt -64 -64
vt 64 -64
vt 64 64
vt -64 64
vt 32 16
vt 48 16
vt 48 80
vt 32 80
vt -32 80
vt -48 80
vt -48 16
vt -32 16
vt 32 -48
vt 48 -48
vt 48 -32
vt 32 -32
vt -32 -32
vt -48 -32
vt -48 -48
vt -32 -48
vt -48 32
vt -32 32
vt -32 48
vt -48 48
vt 48 48
vt 32 48
vt 32 32
vt 48 32

# normals
vn -1 0 -0
vn 0 0 1
vn 0 -1 -0
vn 0 1 -0
vn 0 0 -1
vn 1 0 -0

o entity0_brush0
usemtl __TB_empty
f  1/1/1  2/2/1  3/3/1  4/4/1
usemtl __TB_empty
f  5/3/2  3/4/2  2/1/2  6/2/2
usemtl __TB_empty
f  6/5/3  2/6/3  1/7/3  7/8/3
usemtl __TB_empty
f  8/7/4  4/8/4  3/5/4  5/6/4
usemtl __TB_empty
f  7/1/5  1/2/5  4/3/5  8/4/5
usemtl __TB_empty
f  8/3/6  5/4/6  6/1/6  7/2/6

o entity0_brush1
usemtl __TB_empty
f  9/9/1  10/10/1  11/11/1  12/12/1
usemtl __TB_empty
f  13/13/2  11/14/2  10/15/2  14/16/2
usemtl __TB_empty
f  14/17/3  10/18/3  9/19/3  15/20/3
usemtl __TB_empty
f  16/21/4  12/22/4  11/23/4  13/24/4
usemtl __TB_empty
f  15/9/5  9/10/5  12/11/5  16/12/5
usemtl __TB_empty
f  16/13/6  13/14/6  14/15/6  15/16/6

o entity0_brush2
usemtl __TB_empty
f  17/9/1  18/10/1  19/11/1  20/12/1
usemtl __TB_empty
f  21/11/2  19/12/2  18/9/2  22/10/2
usemtl __TB_empty
f  22/23/3  18/24/3  17/21/3  23/22/3
usemtl __TB_empty
f  24/19/4  20/20/4  19/17/4  21/18/4
usemtl __TB_empty
f  23/15/5  17/16/5  20/13/5  24/14/5
usemtl __TB_empty
f  24/13/6  21/14/6  22/15/6  23/16/6

o entity0_brush3
usemtl __TB_empty
f  25/15/1  26/16/1  27/13/1  28/14/1
usemtl __TB_empty
f  29/11/2  27/12/2  26/9/2  30/10/2
usemtl __TB_empty
f  30/25/3  26/26/3  25/27/3  31/28/3
usemtl __TB_empty
f  32/29/4  28/30/4  27/31/4  29/32/4
usemtl __TB_empty
f  31/15/5  25/16/5  28/13/5  32/14/5
usemtl __TB_empty
f  32/11/6  29/12/6  30/9/6  31/10/6

o entity0_brush4
usemtl __TB_empty
f  33/15/1  34/16/1  35/13/1  36/14/1
usemtl __TB_empty
f  37/13/2  35/14/2  34/15/2  38/16/2
usemtl __TB_empty
f  38/31/3  34/32/3  33/29/3  39/30/3
usemtl __TB_empty
f  40/27/4  36/28/4  35/25/4  37/26/4
usemtl __TB_empty
f  39/9/5  33/10/5  36/11/5  40/12/5
usemtl __TB_empty
f  40/11/6  37/12/6  38/9/6  39/10/6

